<svg width="32" height="32" viewBox="0 0 32 32" xmlns="http://www.w3.org/2000/svg">
  <!-- Favicon version -->
  
  <!-- Dark blue circle -->
  <circle cx="16" cy="16" r="14" fill="#0a1628"/>
  
  <!-- Simplified circuit G -->
  <g>
    <path d="M 10 10 Q 6 10 6 13 L 6 19 Q 6 22 10 22 L 14 22 Q 17 22 17 19 L 17 17" 
          stroke="#4a9eff" stroke-width="1.5" fill="none" stroke-linecap="round"/>
    <path d="M 14 17 L 22 17" stroke="#4a9eff" stroke-width="1.5" stroke-linecap="round"/>
    <circle cx="10" cy="10" r="1" fill="#4a9eff"/>
    <circle cx="14" cy="17" r="1" fill="#4a9eff"/>
    <circle cx="22" cy="17" r="1" fill="#4a9eff"/>
  </g>
  
  <!-- Simplified DNA -->
  <g>
    <path d="M 11 8 Q 14 11 11 14 Q 8 17 11 20 Q 14 23 11 26" 
          stroke="#10b981" stroke-width="1" fill="none" opacity="0.9" stroke-linecap="round"/>
    <path d="M 21 8 Q 18 11 21 14 Q 24 17 21 20 Q 18 23 21 26" 
          stroke="#10b981" stroke-width="1" fill="none" opacity="0.9" stroke-linecap="round"/>
  </g>
</svg>
