<svg width="200" height="200" viewBox="0 0 200 200" xmlns="http://www.w3.org/2000/svg">
  <!-- Circular background with transparent -->
  <defs>
    <clipPath id="circleClip">
      <circle cx="100" cy="100" r="90"/>
    </clipPath>
  </defs>
  
  <!-- Dark blue circle background -->
  <circle cx="100" cy="100" r="90" fill="#0a1628"/>
  
  <!-- Circuit board "G" traces -->
  <g clip-path="url(#circleClip)">
    <!-- Main G shape with circuit traces -->
    <path d="M 60 60 Q 40 60 40 80 L 40 120 Q 40 140 60 140 L 100 140 Q 120 140 120 120" 
          stroke="#4a9eff" stroke-width="3" fill="none"/>
    <path d="M 120 100 L 160 100" stroke="#4a9eff" stroke-width="3"/>
    <path d="M 60 80 L 100 80" stroke="#7c3aed" stroke-width="2"/>
    <path d="M 80 60 L 80 80" stroke="#7c3aed" stroke-width="2"/>
    <path d="M 100 120 L 140 120" stroke="#4a9eff" stroke-width="2"/>
    <circle cx="60" cy="60" r="3" fill="#4a9eff"/>
    <circle cx="100" cy="80" r="3" fill="#7c3aed"/>
    <circle cx="120" cy="100" r="3" fill="#4a9eff"/>
    <circle cx="140" cy="120" r="3" fill="#4a9eff"/>
  </g>
  
  <!-- Green DNA double helix -->
  <g clip-path="url(#circleClip)">
    <path d="M 70 50 Q 90 70 70 90 Q 50 110 70 130 Q 90 150 70 170" 
          stroke="#10b981" stroke-width="4" fill="none" opacity="0.8"/>
    <path d="M 130 50 Q 110 70 130 90 Q 150 110 130 130 Q 110 150 130 170" 
          stroke="#10b981" stroke-width="4" fill="none" opacity="0.8"/>
    <!-- DNA connections -->
    <line x1="70" y1="60" x2="130" y2="60" stroke="#10b981" stroke-width="2" opacity="0.6"/>
    <line x1="70" y1="80" x2="130" y2="80" stroke="#10b981" stroke-width="2" opacity="0.6"/>
    <line x1="70" y1="100" x2="130" y2="100" stroke="#10b981" stroke-width="2" opacity="0.6"/>
    <line x1="70" y1="120" x2="130" y2="120" stroke="#10b981" stroke-width="2" opacity="0.6"/>
    <line x1="70" y1="140" x2="130" y2="140" stroke="#10b981" stroke-width="2" opacity="0.6"/>
    <line x1="70" y1="160" x2="130" y2="160" stroke="#10b981" stroke-width="2" opacity="0.6"/>
  </g>
</svg>
